<svg width="103" height="117" viewBox="0 0 103 117" fill="none" xmlns="http://www.w3.org/2000/svg">
<path d="M102.372 0L93.0453 104.478L51.1231 116.101L9.31644 104.495L0 0H102.372Z" fill="#264DE4"/>
<path d="M85.0607 97.8255L93.0306 8.54395H51.1855V107.217L85.0607 97.8255Z" fill="#2965F1"/>
<path d="M21.3579 47.2996L22.5066 60.1153H51.186V47.2996H21.3579Z" fill="#EBEBEB"/>
<path d="M51.1859 21.3601H51.1416H19.0498L20.2148 34.1761H51.1859V21.3601Z" fill="#EBEBEB"/>
<path d="M51.1859 93.9176V80.5838L51.1297 80.5987L36.8566 76.7447L35.9442 66.5234H29.0086H23.0791L24.8746 86.6462L51.1269 93.934L51.1859 93.9176Z" fill="#EBEBEB"/>
<path d="M66.9229 60.1154L65.4353 76.7366L51.1416 80.5946V93.9279L77.4148 86.6463L77.6076 84.4811L80.6191 50.7411L80.9318 47.2997L83.2455 21.3601H51.1416V34.1761H69.2004L68.0343 47.2997H51.1416V60.1154H66.9229Z" fill="white"/>
</svg>
